<?xml version="1.0" encoding="UTF-8" standalone="no"?>
<svg
   width="800"
   height="800"
   fill="#ffffff"
   viewBox="0 0 400 NaN"
   version="1.1"
   id="svg4"
   sodipodi:docname="facebook.svg"
   inkscape:version="1.2 (dc2aedaf03, 2022-05-15)"
   xmlns:inkscape="http://www.inkscape.org/namespaces/inkscape"
   xmlns:sodipodi="http://sodipodi.sourceforge.net/DTD/sodipodi-0.dtd"
   xmlns="http://www.w3.org/2000/svg"
   xmlns:svg="http://www.w3.org/2000/svg">
  <defs
     id="defs8" />
  <sodipodi:namedview
     id="namedview6"
     pagecolor="#ffffff"
     bordercolor="#000000"
     borderopacity="0.25"
     inkscape:showpageshadow="2"
     inkscape:pageopacity="0.0"
     inkscape:pagecheckerboard="0"
     inkscape:deskcolor="#d1d1d1"
     showgrid="false"
     inkscape:zoom="0.36990524"
     inkscape:cx="1092.1716"
     inkscape:cy="304.13195"
     inkscape:window-width="1920"
     inkscape:window-height="1004"
     inkscape:window-x="1366"
     inkscape:window-y="0"
     inkscape:window-maximized="1"
     inkscape:current-layer="svg4" />
  <path
     d="m 440.743,1.55 c -93.189,11.317 -138.27,56.685 -146.254,147.186 -1.062,12.039 -1.48,30.928 -1.484,67.014 L 293,266 H 246.5 200 V 333.5 401 H 246.5 293 V 600.5 800 h 87 87 V 600.5 401 h 58.441 c 33.587,0 58.678,-0.383 58.998,-0.901 0.306,-0.495 1.228,-6.571 2.049,-13.501 l 2.956,-24.849 3.532,-29.749 6.05,-49.791 c 0.536,-4.01 0.974,-9.297 0.974,-11.75 V 266 H 533.5 467 V 223.724 C 467,135.689 468.735,134 559.159,134 H 600 V 67 0 L 525.75,0.122 C 471.465,0.211 448.608,0.595 440.743,1.55"
     fill-rule="evenodd"
     id="path2" />
</svg>
