<?xml version="1.0" encoding="UTF-8" standalone="no"?>
<svg
   width="20"
   height="20"
   fill="#ffffff"
   version="1.1"
   id="svg174"
   sodipodi:docname="twitter.svg"
   inkscape:version="1.2 (dc2aedaf03, 2022-05-15)"
   xmlns:inkscape="http://www.inkscape.org/namespaces/inkscape"
   xmlns:sodipodi="http://sodipodi.sourceforge.net/DTD/sodipodi-0.dtd"
   xmlns="http://www.w3.org/2000/svg"
   xmlns:svg="http://www.w3.org/2000/svg">
  <defs
     id="defs178" />
  <sodipodi:namedview
     id="namedview176"
     pagecolor="#ffffff"
     bordercolor="#000000"
     borderopacity="0.25"
     inkscape:showpageshadow="2"
     inkscape:pageopacity="0.0"
     inkscape:pagecheckerboard="0"
     inkscape:deskcolor="#d1d1d1"
     showgrid="false"
     inkscape:zoom="24.617647"
     inkscape:cx="11.820789"
     inkscape:cy="11.719235"
     inkscape:window-width="1920"
     inkscape:window-height="1004"
     inkscape:window-x="1366"
     inkscape:window-y="0"
     inkscape:window-maximized="1"
     inkscape:current-layer="svg174" />
  <path
     d="m 20,3.6740037 a 8.192,8.192 0 0 1 -2.357,0.646 4.11,4.11 0 0 0 1.805,-2.27 8.22,8.22 0 0 1 -2.606,0.996 4.096,4.096 0 0 0 -2.995,-1.296 c -2.65,0 -4.596,2.472 -3.998,5.037 A 11.648,11.648 0 0 1 1.392,2.5020037 4.109,4.109 0 0 0 2.662,7.980004 4.086,4.086 0 0 1 0.804,7.4670037 C 0.759,9.367004 2.122,11.146004 4.095,11.542004 a 4.113,4.113 0 0 1 -1.853,0.07 4.106,4.106 0 0 0 3.833,2.849 8.25,8.25 0 0 1 -6.075,1.699 11.616,11.616 0 0 0 6.29,1.843 c 7.618,0 11.923,-6.434 11.663,-12.2050003 a 8.354,8.354 0 0 0 2.047,-2.124 z"
     id="path172" />
</svg>
