<svg version="1.1" id="Capa_1" xmlns="http://www.w3.org/2000/svg" x="0" y="0" viewBox="0 0 283.46 283.46" style="enable-background:new 0 0 283.46 283.46" xml:space="preserve"><style>.st1{fill:#040504}.st6{fill:#a21c26}.st7{fill:#c6362e}.st8{fill:#276839;stroke:#ccdbd0;stroke-width:4.0684px;stroke-miterlimit:10}.st9{fill:#050504;stroke:#040504;stroke-width:1.3708px;stroke-miterlimit:10}.st10{fill:#ebf2de;stroke:#e4edd2;stroke-width:.3898px;stroke-miterlimit:10}</style><path d="M171.93 212.4c2.01 4.42 3.79 8.92 5.52 13.45 1.74 4.53 3.3 9.13 4.74 13.79 1.44 4.66 2.64 9.4 3.67 14.24 1.02 4.83 2.13 9.79 1.49 15.12l-5.14-3.01a24.907 24.907 0 0 1 2.76-1.47c.92-.41 1.86-.79 2.83-1.1 1.92-.64 3.97-1.05 6.1-1.1 2.11-.06 4.37.38 6.28 1.47a9.25 9.25 0 0 1 2.42 2.09c.65.82 1.1 1.73 1.42 2.65l-.54.35c-1.43-1.2-2.93-1.97-4.44-2.19-1.51-.24-3.03-.01-4.53.4-1.51.43-2.99 1.07-4.45 1.83-.72.38-1.45.79-2.15 1.22-.67.43-1.45.9-1.98 1.3l-4.96 3.76-.18-6.76c-.03-1.11.02-2.2.06-3.3-.02-1.13-.06-2.27-.04-3.41-.08-2.3-.12-4.64-.38-6.99-.46-4.69-1.33-9.39-2.28-14.07-1.86-9.39-4.2-18.75-6.82-28.04l.6-.23z" style="fill:#050504"/><path class="st1" d="M159.87 208.88c-.12 3.22-.4 6.42-.87 9.62-.48 3.2-1.04 6.4-2.21 9.62-.32.8-.67 1.61-1.15 2.42-.5.8-1.09 1.65-2.16 2.35-.55.38-1.33.61-1.96.66-.65.06-1.23 0-1.76-.1-1.05-.21-1.93-.56-2.76-.94-3.22-1.6-5.79-3.63-8.37-5.63-1.28-1-2.54-2.01-3.8-2.96-1.24-.93-2.55-1.92-3.63-2.53-.24-.14-.52-.27-.49-.23.03-.01.09.14.88.14.25-.01.5-.06.81-.17.17-.06.34-.14.49-.24.17-.12.19-.11.29-.19.31-.18.61-.7.58-.63.04-.05.09-.15.09-.16 0 .03-.01.05-.02.08-.01.02-.05.22-.07.31l-.17.93c-.13.67-.21 1.42-.31 2.17-.11.75-.21 1.51-.3 2.28-.86 6.18-1.67 12.54-3.48 18.9h-.64c-.92-3.2-1.42-6.41-1.8-9.64-.35-3.23-.54-6.46-.48-9.75.06-1.65.13-3.29.43-5.07.06-.44.17-.91.3-1.41.09-.29.12-.48.25-.84l.18-.49c.08-.2.23-.48.36-.7.04-.12.51-.77.95-1.1.14-.11.17-.15.4-.29.2-.12.41-.22.62-.3.41-.15.75-.2 1.1-.23 1.19-.02 1.64.26 2.04.41.77.35 1.16.66 1.58.96 1.53 1.21 2.62 2.35 3.8 3.5 1.14 1.15 2.27 2.27 3.41 3.35 2.27 2.13 4.61 4.28 7 5.74.59.36 1.18.66 1.68.82.25.08.47.13.62.14.17 0 .18.03.31-.03.3-.12.76-.53 1.15-1.05.4-.52.77-1.15 1.11-1.8 1.38-2.64 2.36-5.68 3.21-8.71.83-3.05 1.55-6.16 2.17-9.29l.62.08zM107.12 129.75c-2.47 5.35-4.55 11.03-5.05 16.69-.24 2.79-.01 5.63 1.17 7.74 1.1 2.15 3.23 3.32 5.71 3.9 2.47.53 5.06.21 7.54-.63 1.25-.38 2.49-.89 3.72-1.43 1.24-.53 2.49-1.11 3.72-1.76 2.5-1.24 4.96-2.7 7.46-4.2l3.74-2.34 1.91-1.19.97-.6.5-.29.25-.15.13-.07c.04-.03.01 0 .1-.07.09-.06.21-.08.29-.07l-.12.56c.04.04.13.05.18.02.06-.04 0 .02 0 .03l-.07.12-.14.25-.29.5-.61.98c-.41.65-.87 1.27-1.31 1.9-.93 1.22-1.91 2.42-2.97 3.54-2.11 2.26-4.48 4.31-7.14 6.05-2.65 1.73-5.66 3.1-8.95 3.73-3.27.64-6.82.56-10.12-.45-1.62-.53-3.24-1.28-4.67-2.4a10.824 10.824 0 0 1-3.28-4.28c-.69-1.65-.96-3.36-1-5-.04-1.65.15-3.24.44-4.78.64-3.07 1.73-5.94 2.98-8.7 1.27-2.75 2.73-5.38 4.41-7.88l.5.28zM211.19 114.72a42.05 42.05 0 0 1 7.96 4.32c2.48 1.76 4.91 3.79 6.61 6.68.82 1.45 1.37 3.2 1.32 5.04-.03 1.84-.7 3.62-1.63 5.09-.46.75-1.02 1.39-1.57 2.03-.59.57-1.17 1.2-1.8 1.7-1.23 1.08-2.59 1.96-3.99 2.79-2.82 1.58-5.82 2.8-8.9 3.61-3.08.83-6.25 1.12-9.36 1.05-3.12-.1-6.19-.5-9.19-1.22-1.5-.34-2.97-.78-4.43-1.27-.72-.27-1.44-.52-2.15-.83l-1.06-.46-.52-.25-.26-.12c-.06-.06-.26-.04-.06-.16l-.3-.47c.39-.11.37-.04.49-.07l.29-.02.57-.03 1.14-.04 2.25-.07 4.43-.12c2.93-.11 5.81-.24 8.65-.47 2.83-.25 5.63-.49 8.38-.88 2.76-.36 5.46-1.02 7.95-2.16 1.22-.6 2.43-1.23 3.52-2.04.58-.37 1.04-.82 1.56-1.23.45-.45.93-.9 1.28-1.39.77-.96 1.28-2.03 1.44-3.17.16-1.14-.05-2.38-.57-3.58-1.03-2.43-3.01-4.65-5.16-6.57-1.09-.97-2.24-1.88-3.44-2.73-1.19-.87-2.43-1.7-3.7-2.44l.25-.52z"/><path d="M64.59 77.7s88.77 123.89 89.62 129.09c.84 5.21.99 25.22 10.84 9.6 0 0 3.4 28.61 12.84 2.82s52.06-182.99 52.06-182.99S115.55 14 85.04 39.65 54.98 64.25 64.59 77.7z" style="fill:#c6362e;stroke:#e6b041;stroke-width:2.6446px;stroke-miterlimit:10"/><path d="M83.15 94.69s34.52-59.03 88.21-41.01c0 0 41.15 26.74 45.25 19.39 4.09-7.36-12.17 40.14-12.17 40.14s10.05 3.46 8.43 10.72c-1.61 7.26-10 17.51-14.71 9.06 2.5 4.49-27.16 110.49-24.41 95.88 0 0-6.75 1.09-10.41-18.03 0 0-50.06-61.86-57.05-81.56 0 0 3.55 23.43-6.71 11.74-10.26-11.7-.57-31.08-8.5-38.7s-10.4-3.83-7.93-7.63z" style="fill:#db8f1b;stroke:#e6b041;stroke-width:2.4504px;stroke-miterlimit:10"/><path d="M60.66 68.61c41.48-2.34 59.26-32.06 164.05-26.58 6.97.36 15.51-8.63 6.75-27.09-8.7-18.35-164.07 2.32-184.56 29.9 6.3-12.09-14.87 25.39 13.76 23.77z" style="fill:#db8f1b;stroke:#db8f1b;stroke-width:2.5458px;stroke-miterlimit:10"/><circle class="st6" cx="144.4" cy="160.6" r="8.35"/><path class="st7" d="M112.29 138.83c-.77.57-1.49 1.18-2.17 1.81l31.59 42.37c.8-.48 1.59-.99 2.36-1.57 11.77-8.77 14.2-25.43 5.42-37.19-8.78-11.77-25.43-14.2-37.2-5.42z"/><path class="st6" d="m110.94 141.21 15.83 21.15c3.04-4.82 2.99-11.2-.62-16.03-3.62-4.83-9.73-6.68-15.21-5.12z"/><circle class="st6" cx="142.73" cy="158.89" r="8.63"/><path class="st7" d="M200.96 113.37c.63.13 1.26.22 1.89.27l9.71-35.13c-.59-.19-1.2-.35-1.83-.48-9.66-1.95-19.67 4.37-22.37 14.13-2.7 9.76 2.95 19.26 12.6 21.21z"/><path class="st6" d="m202.82 112.97 4.82-17.57c-3.87.65-7.3 3.57-8.4 7.59-1.11 4.01.44 7.93 3.58 9.98z"/><ellipse transform="rotate(-42.149 199.078 88.92)" class="st6" cx="199.09" cy="88.93" rx="6.09" ry="5.65"/><ellipse transform="rotate(-9.53 147.985 104.024)" class="st8" cx="148.03" cy="104.04" rx="8.29" ry="1.07"/><ellipse transform="rotate(-9.53 173.365 97.523)" class="st8" cx="173.42" cy="97.53" rx="8.29" ry="1.07"/><circle class="st9" cx="146.87" cy="97.1" r="7.03"/><circle class="st10" cx="145.39" cy="93.08" r="2"/><circle class="st9" cx="172.25" cy="90.6" r="7.03"/><circle class="st10" cx="171.84" cy="86.33" r="2"/><path class="st1" d="M134.08 89.82c.67-1.74 1.55-3.39 2.52-5 1-1.59 2.12-3.12 3.45-4.49 1.33-1.35 2.76-2.77 4.64-3.47 1.85-.7 3.95-.88 5.78-.26l-.02.18c-1.87.38-3.49.9-5.02 1.71-.37.22-.75.43-1.13.62l-1.11.68c-.39.2-.74.48-1.1.74-.36.26-.72.52-1.05.83-1.37 1.16-2.59 2.52-3.7 3.97a36.5 36.5 0 0 0-3.09 4.56l-.17-.07zM183.6 79.62a11.47 11.47 0 0 0-3.82-3.19c-1.45-.77-3.03-1.21-4.62-1.39l-1.2-.03c-.4-.02-.8.08-1.2.11-.8.04-1.58.21-2.39.23-.41-.01-.81.1-1.22.13-.41.03-.83.08-1.25.09-.83.12-1.69.21-2.62.19l-.09-.21c.69-.59 1.46-1.08 2.25-1.52.82-.36 1.67-.71 2.55-.93 1.78-.45 3.68-.24 5.47.13 1.8.4 3.51 1.14 4.95 2.23 1.43 1.09 2.64 2.44 3.41 4.04l-.22.12zM156.98 107.98c1.47 1.14 2.88 2.27 4.34 3.29.74.49 1.46.98 2.23 1.36.75.39 1.52.7 2.25.77.73.11 1.34-.05 1.84-.51.53-.44.94-1.16 1.26-1.94.64-1.58.96-3.39 1.38-5.19.31 1.83.4 3.71-.06 5.62-.21.95-.65 1.92-1.43 2.75-.39.41-.93.71-1.49.91-.57.15-1.16.21-1.7.14-2.18-.35-3.75-1.57-5.14-2.82-1.39-1.3-2.57-2.75-3.48-4.38zM211.19 114.72a42.05 42.05 0 0 1 7.96 4.32c2.48 1.76 4.91 3.79 6.61 6.68.82 1.45 1.37 3.2 1.32 5.04-.03 1.84-.7 3.62-1.63 5.09-.46.75-1.02 1.39-1.57 2.03-.59.57-1.17 1.2-1.8 1.7-1.23 1.08-2.59 1.96-3.99 2.79-2.82 1.58-5.82 2.8-8.9 3.61-3.08.83-6.25 1.12-9.36 1.05-3.12-.1-6.19-.5-9.19-1.22-1.5-.34-2.97-.78-4.43-1.27-.72-.27-1.44-.52-2.15-.83l-1.06-.46-.52-.25-.26-.12c-.06-.06-.26-.04-.06-.16l-.3-.47c.39-.11.37-.04.49-.07l.29-.02.57-.03 1.14-.04 2.25-.07 4.43-.12c2.93-.11 5.81-.24 8.65-.47 2.83-.25 5.63-.49 8.38-.88 2.76-.36 5.46-1.02 7.95-2.16 1.22-.6 2.43-1.23 3.52-2.04.58-.37 1.04-.82 1.56-1.23.45-.45.93-.9 1.28-1.39.77-.96 1.28-2.03 1.44-3.17.16-1.14-.05-2.38-.57-3.58-1.03-2.43-3.01-4.65-5.16-6.57-1.09-.97-2.24-1.88-3.44-2.73-1.19-.87-2.43-1.7-3.7-2.44l.25-.52zM101.69 142.65c-.37 2.35-.61 4.71-.39 6.99.09 1.14.32 2.24.69 3.25.35 1.02.87 1.94 1.54 2.69.3.41.71.71 1.06 1.05.42.27.8.59 1.27.79.87.49 1.89.76 2.9 1.01 2.04.42 4.15.35 6.23-.11 2.08-.47 4.08-1.39 5.98-2.47l5.78-3.36c1.96-1.14 3.94-2.33 5.95-3.55l3.07-1.82 1.59-.9.81-.45.42-.22.21-.11.11-.05.03-.02c.03-.02.07-.05.11-.06.08-.04.17-.04.23-.04l-.12.56c.03.03.1.05.15.03.03-.01.05-.02.06-.03l-.01.02-.05.1-.1.21-.21.44-.45.82c-.31.55-.65 1.07-.98 1.6-.7 1.03-1.43 2.04-2.23 2.99-1.6 1.91-3.39 3.66-5.37 5.22-1.99 1.55-4.21 2.85-6.63 3.77-2.43.9-5 1.53-7.63 1.84-2.64.29-5.41.09-7.98-.75-2.49-.89-5.06-2.43-6.52-4.85-.75-1.17-1.22-2.47-1.45-3.76-.26-1.29-.31-2.58-.22-3.83.13-2.51.8-4.88 1.61-7.16l.54.16z"/></svg>