<svg width="20" height="20" fill="#fff" version="1.1" id="svg174" xmlns="http://www.w3.org/2000/svg"><path d="M20 3.674a8.192 8.192 0 0 1-2.357.646 4.11 4.11 0 0 0 1.805-2.27 8.22 8.22 0 0 1-2.606.996 4.096 4.096 0 0 0-2.995-1.296c-2.65 0-4.596 2.472-3.998 5.037a11.648 11.648 0 0 1-8.457-4.285 4.109 4.109 0 0 0 1.27 5.478 4.086 4.086 0 0 1-1.858-.513c-.045 1.9 1.318 3.679 3.291 4.075a4.113 4.113 0 0 1-1.853.07 4.106 4.106 0 0 0 3.833 2.849A8.25 8.25 0 0 1 0 16.16a11.616 11.616 0 0 0 6.29 1.843c7.618 0 11.923-6.434 11.663-12.205A8.354 8.354 0 0 0 20 3.674z" id="path172"/></svg>